<?xml version="1.0" encoding="utf-8"?>
<!-- Generator: Adobe Illustrator 18.0.0, SVG Export Plug-In . SVG Version: 6.00 Build 0)  -->
<!DOCTYPE svg PUBLIC "-//W3C//DTD SVG 1.1//EN" "http://www.w3.org/Graphics/SVG/1.1/DTD/svg11.dtd">
<svg version="1.1" id="Layer_1" xmlns="http://www.w3.org/2000/svg" xmlns:xlink="http://www.w3.org/1999/xlink" x="0px" y="0px"
	 width="199.8px" height="60px" viewBox="0 0 199.8 60" enable-background="new 0 0 199.8 60" xml:space="preserve">
<g>
	<g>
		<path fill="#1F1450" d="M70.1,53.6h-3.7v-7H70v0.7h-2.8v2.3h2.5v0.7h-2.5v2.5h2.9V53.6z"/>
		<path fill="#1F1450" d="M78.5,53.6h-0.8v-2.9c0-0.6-0.1-1-0.3-1.2c-0.2-0.2-0.5-0.4-0.9-0.4c-0.3,0-0.6,0.2-0.9,0.5
			c-0.2,0.3-0.4,0.7-0.4,1.1v2.9h-0.8v-3c0-1-0.4-1.5-1.1-1.5c-0.4,0-0.6,0.1-0.9,0.4c-0.2,0.3-0.3,0.7-0.3,1.2v2.9h-0.8v-5h0.8v0.8
			h0c0.4-0.6,0.9-0.9,1.6-0.9c0.3,0,0.6,0.1,0.9,0.3c0.3,0.2,0.4,0.4,0.5,0.8c0.4-0.7,0.9-1,1.7-1c1.1,0,1.7,0.7,1.7,2V53.6z"/>
		<path fill="#1F1450" d="M80.9,52.9L80.9,52.9l0,3h-0.8v-7.3h0.8v0.9h0c0.4-0.7,1-1,1.7-1c0.6,0,1.2,0.2,1.5,0.7
			c0.4,0.4,0.5,1.1,0.5,1.8c0,0.8-0.2,1.5-0.6,2c-0.4,0.5-1,0.8-1.7,0.8C81.7,53.7,81.2,53.4,80.9,52.9z M80.9,50.8v0.7
			c0,0.4,0.1,0.8,0.4,1.1c0.3,0.3,0.6,0.4,1,0.4c0.5,0,0.9-0.2,1.1-0.6c0.3-0.4,0.4-0.9,0.4-1.6c0-0.6-0.1-1-0.4-1.3
			s-0.6-0.5-1.1-0.5c-0.5,0-0.8,0.2-1.1,0.5C81,49.9,80.9,50.3,80.9,50.8z"/>
		<path fill="#1F1450" d="M88.1,53.7c-0.7,0-1.3-0.2-1.8-0.7s-0.7-1.1-0.7-1.9c0-0.8,0.2-1.5,0.7-2c0.5-0.5,1.1-0.7,1.9-0.7
			c0.7,0,1.3,0.2,1.8,0.7c0.4,0.5,0.6,1.1,0.6,1.9c0,0.8-0.2,1.4-0.7,1.9C89.4,53.5,88.8,53.7,88.1,53.7z M88.1,49.1
			c-0.5,0-0.9,0.2-1.2,0.5c-0.3,0.4-0.5,0.8-0.5,1.5c0,0.6,0.2,1.1,0.5,1.4c0.3,0.3,0.7,0.5,1.2,0.5c0.5,0,0.9-0.2,1.2-0.5
			c0.3-0.3,0.4-0.8,0.4-1.4c0-0.6-0.1-1.1-0.4-1.5C89.1,49.3,88.7,49.1,88.1,49.1z"/>
		<path fill="#1F1450" d="M98.2,48.6l-1.5,5h-0.8l-1-3.6c0-0.1-0.1-0.3-0.1-0.5h0c0,0.1,0,0.3-0.1,0.5l-1.1,3.6h-0.8l-1.5-5H92
			l1,3.8c0,0.1,0.1,0.3,0.1,0.5h0c0-0.1,0-0.3,0.1-0.5l1.2-3.8h0.7l1,3.8c0,0.1,0.1,0.3,0.1,0.5h0c0-0.1,0-0.3,0.1-0.5l1-3.8H98.2z"
			/>
		<path fill="#1F1450" d="M103.1,51.3h-3.6c0,0.6,0.2,1,0.5,1.3c0.3,0.3,0.7,0.5,1.2,0.5c0.6,0,1.1-0.2,1.6-0.6v0.8
			c-0.4,0.3-1,0.5-1.8,0.5c-0.7,0-1.3-0.2-1.7-0.7c-0.4-0.5-0.6-1.1-0.6-1.9c0-0.8,0.2-1.4,0.7-1.9c0.4-0.5,1-0.7,1.7-0.7
			c0.7,0,1.2,0.2,1.5,0.6c0.4,0.4,0.5,1,0.5,1.8V51.3z M102.3,50.6c0-0.5-0.1-0.8-0.3-1.1c-0.2-0.3-0.5-0.4-0.9-0.4
			c-0.4,0-0.7,0.1-1,0.4c-0.3,0.3-0.4,0.6-0.5,1.1H102.3z"/>
		<path fill="#1F1450" d="M107,49.4c-0.1-0.1-0.3-0.2-0.6-0.2c-0.3,0-0.6,0.2-0.9,0.5c-0.2,0.3-0.3,0.8-0.3,1.3v2.6h-0.8v-5h0.8v1h0
			c0.1-0.4,0.3-0.6,0.5-0.8c0.2-0.2,0.5-0.3,0.8-0.3c0.2,0,0.4,0,0.5,0.1V49.4z"/>
		<path fill="#1F1450" d="M108.3,47.3c-0.1,0-0.3,0-0.4-0.1c-0.1-0.1-0.2-0.2-0.2-0.4c0-0.1,0.1-0.3,0.2-0.4s0.2-0.1,0.4-0.1
			c0.1,0,0.3,0,0.4,0.1s0.2,0.2,0.2,0.4c0,0.1-0.1,0.3-0.2,0.4C108.5,47.2,108.4,47.3,108.3,47.3z M108.7,53.6h-0.8v-5h0.8V53.6z"/>
		<path fill="#1F1450" d="M114.5,53.6h-0.8v-2.9c0-1.1-0.4-1.6-1.2-1.6c-0.4,0-0.7,0.2-1,0.5c-0.3,0.3-0.4,0.7-0.4,1.1v2.9h-0.8v-5
			h0.8v0.8h0c0.4-0.6,0.9-1,1.6-1c0.6,0,1,0.2,1.3,0.5c0.3,0.4,0.4,0.9,0.4,1.5V53.6z"/>
		<path fill="#1F1450" d="M120.3,53.2c0,1.8-0.9,2.8-2.7,2.8c-0.6,0-1.2-0.1-1.6-0.4v-0.8c0.6,0.3,1.1,0.5,1.6,0.5
			c1.2,0,1.9-0.7,1.9-2v-0.6h0c-0.4,0.6-1,1-1.7,1c-0.6,0-1.1-0.2-1.5-0.7c-0.4-0.4-0.6-1-0.6-1.8c0-0.9,0.2-1.5,0.6-2
			c0.4-0.5,1-0.8,1.7-0.8c0.7,0,1.2,0.3,1.5,0.8h0v-0.7h0.8V53.2z M119.5,51.3v-0.7c0-0.4-0.1-0.7-0.4-1c-0.3-0.3-0.6-0.4-1-0.4
			c-0.5,0-0.9,0.2-1.2,0.5c-0.3,0.4-0.4,0.9-0.4,1.5c0,0.6,0.1,1,0.4,1.3c0.3,0.3,0.6,0.5,1.1,0.5c0.5,0,0.8-0.2,1.1-0.5
			C119.3,52.2,119.5,51.8,119.5,51.3z"/>
		<path fill="#1F1450" d="M128.7,48.6l-2.3,5.8c-0.4,1-1,1.6-1.7,1.6c-0.2,0-0.4,0-0.5-0.1v-0.7c0.2,0.1,0.3,0.1,0.5,0.1
			c0.4,0,0.7-0.2,0.9-0.7l0.4-1l-2-5h0.9l1.4,3.9c0,0,0.1,0.2,0.1,0.4h0c0-0.1,0-0.2,0.1-0.4l1.4-3.9H128.7z"/>
		<path fill="#1F1450" d="M131.6,53.7c-0.7,0-1.3-0.2-1.8-0.7s-0.7-1.1-0.7-1.9c0-0.8,0.2-1.5,0.7-2c0.5-0.5,1.1-0.7,1.9-0.7
			c0.7,0,1.3,0.2,1.8,0.7c0.4,0.5,0.6,1.1,0.6,1.9c0,0.8-0.2,1.4-0.7,1.9S132.3,53.7,131.6,53.7z M131.6,49.1
			c-0.5,0-0.9,0.2-1.2,0.5c-0.3,0.4-0.5,0.8-0.5,1.5c0,0.6,0.2,1.1,0.5,1.4c0.3,0.3,0.7,0.5,1.2,0.5c0.5,0,0.9-0.2,1.2-0.5
			c0.3-0.3,0.4-0.8,0.4-1.4c0-0.6-0.1-1.1-0.4-1.5C132.6,49.3,132.2,49.1,131.6,49.1z"/>
		<path fill="#1F1450" d="M139.4,53.6h-0.8v-0.8h0c-0.3,0.6-0.9,0.9-1.6,0.9c-1.2,0-1.8-0.7-1.8-2.1v-3h0.8v2.9
			c0,1.1,0.4,1.6,1.2,1.6c0.4,0,0.7-0.1,1-0.4c0.3-0.3,0.4-0.7,0.4-1.1v-2.9h0.8V53.6z"/>
		<path fill="#1F1450" d="M143.7,49.4c-0.1-0.1-0.3-0.2-0.6-0.2c-0.3,0-0.6,0.2-0.9,0.5c-0.2,0.3-0.3,0.8-0.3,1.3v2.6h-0.8v-5h0.8v1
			h0c0.1-0.4,0.3-0.6,0.5-0.8c0.2-0.2,0.5-0.3,0.8-0.3c0.2,0,0.4,0,0.5,0.1V49.4z"/>
		<path fill="#1F1450" d="M152.2,53.3c-0.5,0.3-1.2,0.4-1.9,0.4c-1,0-1.8-0.3-2.4-1c-0.6-0.6-0.9-1.5-0.9-2.5c0-1.1,0.3-2,1-2.7
			c0.7-0.7,1.5-1,2.6-1c0.7,0,1.2,0.1,1.7,0.3v0.9c-0.5-0.3-1.1-0.4-1.7-0.4c-0.8,0-1.5,0.3-2,0.8c-0.5,0.5-0.8,1.3-0.8,2.2
			c0,0.9,0.2,1.5,0.7,2.1c0.5,0.5,1.1,0.8,1.9,0.8c0.7,0,1.3-0.2,1.8-0.5V53.3z"/>
		<path fill="#1F1450" d="M155.6,53.7c-0.7,0-1.3-0.2-1.8-0.7c-0.4-0.5-0.7-1.1-0.7-1.9c0-0.8,0.2-1.5,0.7-2
			c0.5-0.5,1.1-0.7,1.9-0.7c0.8,0,1.3,0.2,1.8,0.7c0.4,0.5,0.6,1.1,0.6,1.9c0,0.8-0.2,1.4-0.7,1.9S156.4,53.7,155.6,53.7z
			 M155.7,49.1c-0.5,0-0.9,0.2-1.2,0.5c-0.3,0.4-0.5,0.8-0.5,1.5c0,0.6,0.2,1.1,0.5,1.4c0.3,0.3,0.7,0.5,1.2,0.5
			c0.5,0,0.9-0.2,1.2-0.5c0.3-0.3,0.4-0.8,0.4-1.4c0-0.6-0.1-1.1-0.4-1.5C156.6,49.3,156.2,49.1,155.7,49.1z"/>
		<path fill="#1F1450" d="M166.6,53.6h-0.8v-2.9c0-0.6-0.1-1-0.3-1.2c-0.2-0.2-0.5-0.4-0.9-0.4c-0.3,0-0.6,0.2-0.9,0.5
			c-0.2,0.3-0.4,0.7-0.4,1.1v2.9h-0.8v-3c0-1-0.4-1.5-1.1-1.5c-0.4,0-0.6,0.1-0.9,0.4c-0.2,0.3-0.3,0.7-0.3,1.2v2.9h-0.8v-5h0.8v0.8
			h0c0.4-0.6,0.9-0.9,1.6-0.9c0.3,0,0.6,0.1,0.9,0.3c0.3,0.2,0.4,0.4,0.5,0.8c0.4-0.7,0.9-1,1.7-1c1.1,0,1.7,0.7,1.7,2V53.6z"/>
		<path fill="#1F1450" d="M175.2,53.6h-0.8v-2.9c0-0.6-0.1-1-0.3-1.2c-0.2-0.2-0.5-0.4-0.9-0.4c-0.3,0-0.6,0.2-0.9,0.5
			c-0.2,0.3-0.4,0.7-0.4,1.1v2.9h-0.8v-3c0-1-0.4-1.5-1.1-1.5c-0.4,0-0.6,0.1-0.9,0.4c-0.2,0.3-0.3,0.7-0.3,1.2v2.9h-0.8v-5h0.8v0.8
			h0c0.4-0.6,0.9-0.9,1.6-0.9c0.3,0,0.6,0.1,0.9,0.3c0.3,0.2,0.4,0.4,0.5,0.8c0.4-0.7,0.9-1,1.7-1c1.1,0,1.7,0.7,1.7,2V53.6z"/>
		<path fill="#1F1450" d="M180.8,53.6H180v-0.8h0c-0.3,0.6-0.9,0.9-1.6,0.9c-1.2,0-1.8-0.7-1.8-2.1v-3h0.8v2.9
			c0,1.1,0.4,1.6,1.2,1.6c0.4,0,0.7-0.1,1-0.4c0.3-0.3,0.4-0.7,0.4-1.1v-2.9h0.8V53.6z"/>
		<path fill="#1F1450" d="M186.6,53.6h-0.8v-2.9c0-1.1-0.4-1.6-1.2-1.6c-0.4,0-0.7,0.2-1,0.5c-0.3,0.3-0.4,0.7-0.4,1.1v2.9h-0.8v-5
			h0.8v0.8h0c0.4-0.6,0.9-1,1.6-1c0.6,0,1,0.2,1.3,0.5c0.3,0.4,0.4,0.9,0.4,1.5V53.6z"/>
		<path fill="#1F1450" d="M188.6,47.3c-0.1,0-0.3,0-0.4-0.1c-0.1-0.1-0.2-0.2-0.2-0.4c0-0.1,0-0.3,0.2-0.4c0.1-0.1,0.2-0.1,0.4-0.1
			c0.1,0,0.3,0,0.4,0.1c0.1,0.1,0.2,0.2,0.2,0.4c0,0.1-0.1,0.3-0.2,0.4C188.8,47.2,188.7,47.3,188.6,47.3z M189,53.6h-0.8v-5h0.8
			V53.6z"/>
		<path fill="#1F1450" d="M192.9,53.5c-0.2,0.1-0.4,0.2-0.8,0.2c-0.9,0-1.3-0.5-1.3-1.5v-3H190v-0.7h0.9v-1.2l0.8-0.3v1.5h1.3v0.7
			h-1.3v2.8c0,0.3,0.1,0.6,0.2,0.7c0.1,0.1,0.3,0.2,0.6,0.2c0.2,0,0.4-0.1,0.5-0.2V53.5z"/>
		<path fill="#1F1450" d="M198,48.6l-2.3,5.8c-0.4,1-1,1.6-1.7,1.6c-0.2,0-0.4,0-0.5-0.1v-0.7c0.2,0.1,0.3,0.1,0.5,0.1
			c0.4,0,0.7-0.2,0.9-0.7l0.4-1l-2-5h0.9l1.4,3.9c0,0,0.1,0.2,0.1,0.4h0c0-0.1,0-0.2,0.1-0.4l1.4-3.9H198z"/>
	</g>
	<g>
		<path fill="#1F1450" d="M95.4,34h-3V16.6c0-1.4,0.1-3.1,0.3-5.1h-0.1c-0.3,1.2-0.6,2-0.8,2.5l-8.9,20h-1.5l-8.9-19.9
			c-0.3-0.6-0.5-1.5-0.8-2.7h-0.1c0.1,1,0.1,2.7,0.1,5.1V34h-2.9V8h4l8,18.1c0.6,1.4,1,2.4,1.2,3.1h0.1c0.5-1.4,0.9-2.5,1.3-3.2
			L91.6,8h3.8V34z"/>
		<path fill="#1F1450" d="M116.7,15.5L108.1,37c-1.5,3.8-3.7,5.8-6.4,5.8c-0.8,0-1.4-0.1-1.9-0.2v-2.7c0.6,0.2,1.2,0.3,1.8,0.3
			c1.5,0,2.6-0.9,3.4-2.7l1.5-3.5l-7.3-18.5h3.3l5,14.3c0.1,0.2,0.2,0.7,0.4,1.4h0.1c0.1-0.3,0.2-0.8,0.4-1.4l5.3-14.3H116.7z"/>
		<path fill="#1F1450" d="M138,33c-1.9,1-4.3,1.5-7.2,1.5c-3.7,0-6.7-1.2-8.9-3.6s-3.3-5.5-3.3-9.4c0-4.2,1.3-7.5,3.8-10.1
			s5.7-3.8,9.5-3.8c2.5,0,4.5,0.4,6.1,1.1v3.2c-1.9-1-3.9-1.6-6.2-1.6c-3,0-5.4,1-7.3,3c-1.9,2-2.8,4.7-2.8,8c0,3.2,0.9,5.7,2.6,7.6
			c1.7,1.9,4,2.8,6.8,2.8c2.6,0,4.9-0.6,6.8-1.7V33z"/>
		<path fill="#1F1450" d="M150.6,34.5c-2.7,0-4.9-0.9-6.6-2.6c-1.6-1.7-2.5-4-2.5-6.9c0-3.1,0.9-5.6,2.6-7.3c1.7-1.8,4-2.6,6.9-2.6
			c2.8,0,4.9,0.9,6.5,2.6s2.3,4.1,2.3,7.1c0,3-0.8,5.3-2.5,7.1S153.5,34.5,150.6,34.5z M150.9,17.5c-1.9,0-3.4,0.7-4.5,2
			s-1.7,3.1-1.7,5.4c0,2.2,0.6,3.9,1.7,5.2s2.6,1.9,4.5,1.9c1.9,0,3.4-0.6,4.4-1.9c1-1.2,1.6-3,1.6-5.3c0-2.3-0.5-4.1-1.6-5.4
			S152.8,17.5,150.9,17.5z"/>
		<path fill="#1F1450" d="M179.3,15.5L171.9,34h-2.9l-7-18.6h3.3l4.7,13.5c0.4,1,0.6,1.9,0.7,2.6h0.1c0.1-0.9,0.3-1.8,0.6-2.5
			l4.9-13.6H179.3z"/>
		<path fill="#1F1450" d="M197.2,25.5h-13.1c0,2.1,0.6,3.7,1.7,4.8c1.1,1.1,2.5,1.7,4.4,1.7c2.1,0,4-0.7,5.8-2.1v2.8
			c-1.6,1.2-3.8,1.8-6.5,1.8c-2.6,0-4.7-0.8-6.2-2.5c-1.5-1.7-2.3-4.1-2.3-7.1c0-2.9,0.8-5.2,2.5-7.1c1.6-1.8,3.7-2.7,6.1-2.7
			s4.3,0.8,5.6,2.4s2,3.8,2,6.6V25.5z M194.1,23c0-1.7-0.4-3.1-1.2-4c-0.8-1-2-1.4-3.4-1.4c-1.4,0-2.6,0.5-3.6,1.5
			c-1,1-1.6,2.3-1.8,3.9H194.1z"/>
	</g>
	<path fill-rule="evenodd" clip-rule="evenodd" fill="#1F1450" d="M5,42C-5.2,24.3,11,3,27.8,1.2c11.9,7.1,17.9,32.4-2.9,35
		C44.2,33.2,14.7,4.8,5,42z"/>
	<path fill-rule="evenodd" clip-rule="evenodd" fill="#22A7D9" d="M27.8,1.2c10-1,17.5,4.7,22.1,14.3C66.6,52.9,9.1,81,10.9,35.2
		C47.7,43.3,41.8,9.6,27.8,1.2z"/>
</g>
</svg>
